<?xml version="1.0" encoding="UTF-8"?>
<svg width="108px" height="35px" viewBox="0 0 108 35" version="1.1" xmlns="http://www.w3.org/2000/svg" xmlns:xlink="http://www.w3.org/1999/xlink">
    <!-- Generator: Sketch 45.2 (43514) - http://www.bohemiancoding.com/sketch -->
    <title>Combined Shape</title>
    <desc>Created with Sketch.</desc>
    <defs>
        <radialGradient cx="40.8760201%" cy="60.4212701%" fx="40.8760201%" fy="60.4212701%" r="73.2002384%" gradientTransform="translate(0.408760,0.604213),scale(0.319837,1.000000),rotate(-7.106693),translate(-0.408760,-0.604213)" id="radialGradient-1">
            <stop stop-color="#FF4B1F" offset="0%"></stop>
            <stop stop-color="#FF9068" offset="100%"></stop>
        </radialGradient>
    </defs>
    <g id="Page-1" stroke="none" stroke-width="1" fill="none" fill-rule="evenodd">
        <g id="Desktop" transform="translate(-11.000000, -377.000000)" fill="url(#radialGradient-1)">
            <path d="M100.741163,397.65001 C100.076791,398.81697 99.3855026,400.146705 98.7,401.65 C96.95,405.975 94.95,410.25 93.9,411.1 C93.025,411.8 90.55,410.125 90.175,409.475 C89.95,409.1 90.1,408.825 90.075,408.8 C87.575,407.025 91.35,403.525 93.675,401.1 C93.7,401.075 94.3,399.625 95.075,397.8 C92.075,401.625 92.175,402.225 91.8,402.25 C90.875,402.325 87.925,399.875 87.925,398.875 C87.925,396.025 92.575,388.375 94.375,386.675 C94.725,386.325 95.05,386.4 95.475,386.575 C96.525,387.025 98.15,388.525 97.725,389.225 C96.225,391.6 92.175,398.65 91.9,400.425 C93.075,398.4 95.075,395.925 96.775,393.725 C97.575,391.85 98.25,390.3 98.425,390 C98.775,389.45 102.025,390.625 102.025,391.775 C102.025,392.275 101.6,393.775 100.925,395.75 C101.200012,395.279217 101.4785,394.815387 101.754469,394.3705 C103.227471,390.817755 105.941761,386.577006 108.1,386.25 C109.15,386.1 111.55,388.925 111.5,389.475 C108.1,392.275 104.975,398.025 104.775,401.5 C105.575,400.05 107.775,396.875 109.575,394.5 C110.275,392.75 111,391.15 111.275,391.05 C112.2,390.7 114.625,392.425 114.575,393.125 C114.525,393.9 113.95,395.45 113.325,397.05 C115.075,394.225 117.1,391.3 117.975,391.025 C118.375,390.9 118.55,391.35 118.425,391.525 C117.725,392.5 114.625,395.65 111.525,401.875 L111.5,401.875 C110.05,402.425 108.075,400.4 108.075,399.2 C108.075,398.925 108.225,398.3 108.475,397.525 C107.2,399.15 105.775,401.2 105.225,402.05 C104.6,403.05 101.15,400.675 100.725,398.75 C100.663498,398.474703 100.672328,398.099225 100.741163,397.65001 Z M71.8080545,393.501953 C72.7750383,391.069566 74.5544381,387.814915 77.225,386.25 C78.5,385.575 83.025,387.825 83.9,389.15 C84.4,389.975 83.95,393.425 82.925,396.075 C84.475,396.45 86.55,395.375 87.85,391.875 C87.9,391.5 88.45,391.825 88.375,392.2 C87.2,396.575 84.15,397.425 82.5,397.425 C82.325,397.4 82.375,397.3 82.35,397.475 C81.2,400.025 77.875,404.05 75.475,402.725 C73.6,401.675 73.375,400.325 73.2,399.575 C73.025,398.925 70.675,397.9 70.975,396.125 C70.9911466,396.044267 71.0114276,395.952859 71.0358736,395.851753 C69.5225904,397.913452 67.9452624,400.431571 67.075,402.875 C66.825,403 65.95,402.775 65.525,402.325 C65.425,402.2 65.3,402.2 65.225,402.225 C64.35,402.375 62.4,401.35 61.975,400.575 C61.7608233,400.182343 62.3678059,397.864208 63.2811314,395.016801 C62.3615289,396.41882 61.324937,398.150126 60.3,400.2 C60.075,400.675 59.75,401.15 59.4,401.4 C55.6061884,405.432166 50.1553327,402.015525 51.7491834,398.159122 C49.9992905,400.45437 48.2993322,402.316415 47.85,402.45 C46.225,402.925 42.775,400.725 42.2,399.5 C40.6,396.05 46.175,385.7 48.575,385.85 C49.7,385.9 52.85,387.675 52.65,388.25 C52.975,388.075 53.475,388.225 53.65,388.95 C54.025,391.35 49.8,398.425 47.875,397 C47.75,396.9 46.425,400.525 46.925,401.125 C47.537601,401.88547 52.0591823,396.66645 54.0648103,392.722383 C53.9016205,387.331292 60.0533175,384.775203 62.875,387.75 C63.95,388.875 63.55,390.95 62.75,390.325 C62.2,389.775 62.95,389.625 62.2,388.975 C61.425,388.3 56.15,387.25 60.025,396.925 C60.2,397.375 60.325,397.875 60.4,398.375 C61.5969845,396.280277 63.0717918,393.85812 64.2118305,392.233697 C65.0432787,389.835368 65.9651087,387.379368 66.725,385.55 C65.625,385.625 63.75,386.05 63.275,386.175 C62.95,386.25 61.9,384.7 62.375,384.55 C64.6,383.9 67.4,383.725 67.4,383.725 C67.7,382.975 68.25,381.775 68.15,381.475 C67.925,380.825 68.425,380.675 68.925,380.675 C69.55,380.675 72.625,381.5 73.225,382.075 C73.675,382.45 73.35,382.725 73.15,383.4 C74.625,383.2 79,383.1 79.3,383.125 C80.2,383.2 80.85,383.825 80.475,384.05 C80.175,384.225 76.625,384.2 72.625,385.025 C70.175,391.45 68.15,396.925 67.45,399.275 C68.0510722,398.23815 70.0792312,395.602602 71.8080545,393.501953 Z M54.3216928,394.456192 C53.9524052,395.052836 53.5480608,395.663828 53.127139,396.269231 C53.5214127,395.904344 53.993159,395.545888 54.55,395.2 C54.4611749,394.94788 54.3852944,394.699882 54.3216928,394.456192 Z M28.725,407.725 C26.275,408.125 23.35,403.925 24.5,403.075 C24.85,402.825 24.85,402.55 24.95,402.325 C25.75,400.5 27.475,399.225 29.525,398.325 C32.55,397 33.9,397.35 34.075,397.225 C36.05,395.825 36.575,395.125 36.425,394.725 C36.25,394.275 32.025,394.45 28.475,396.175 C27.7,396.55 27.025,395 26.825,394.3 C26.675,394.8 22.7,404.925 22.25,405.275 C21.125,406.175 16.85,402.475 17.45,400.8 C18.475,397.925 24.35,385.75 26.65,379.775 C24.7,382 17.375,384.775 13.5,384.775 C11.65,384.775 11.225,381 12,381.4 C14.05,382.5 23.5,379.65 27.125,377.225 C28.3,376.45 32.1,379.45 32.1,380.6 C32.1,381.2 31.475,382.8 30.875,383.9 C32.65,382.05 38.6,379.25 39.975,380.375 C40.275,380.625 40.3,380.625 40.6,380.525 C42.05,380 42.875,382.375 42.975,384.3 C43.1,386.75 38.975,390.8 35.05,392.8 C35.875,392.6 38.775,392.3 39.625,392.975 C40.575,393.725 41.6,396.5 41.15,397.875 C39.8,402 33.3,407 28.725,407.725 Z M28.95,390.125 C30.4,386.85 36.35,381.5 39.675,381.5 C40.25,382.775 33,387.975 28.95,390.125 Z M28.15,403.825 C28.25,402.825 31.05,400.525 34.025,400.125 C32.575,401.275 29.925,403.175 28.15,403.825 Z M48.25,395.975 C48.575,394.425 51.6,389.675 52.2,389.275 C52.325,390.85 49.7,395.375 48.25,395.975 Z M55.3282796,397.391835 C55.1965939,397.311685 55.0069642,397.360523 54.8126144,397.493638 C54.4764459,397.723889 54.1235178,398.206788 54.033796,398.685531 C54.0337954,398.685536 54.0337948,398.68554 54.0337942,398.685545 L53.6573962,400.692349 C53.6553094,400.703549 53.6575631,400.71171 53.6634758,400.714365 C53.668445,400.718617 53.676826,400.717084 53.6860484,400.710237 L55.3245646,399.492108 C55.324567,399.492104 55.3245728,399.492103 55.3245768,399.4921 C55.7155368,399.201592 55.9948445,398.67269 56.0544256,398.269608 C56.1132657,397.871543 55.9570989,397.593711 55.5019375,397.772138 C55.4857021,397.570106 55.421537,397.448597 55.3282792,397.391835 L55.3282796,397.391835 Z M81.325,395.8 C81.55,395.8 83.725,390.025 82.525,389.525 C82.1,389.375 80.1,390.05 78.65,393.05 C77.975,394.475 80.15,395.675 81.325,395.8 Z M76.1,401.7 C77.1,402.25 79.55,399.4 80.55,397 C79.975,396.95 77.875,396.2 77.525,395.325 C75.5,399.275 75.4,401.3 76.1,401.7 Z M83.875,402.75 C85.925,404.05 87.825,400.3 85.55,399.1 C83.85,398.2 81.6,401.325 83.875,402.75 Z M90.55,408.125 C89.55,407.15 91.75,404.725 92.575,404.175 C91.725,405.65 90.925,407.225 90.55,408.125 Z" id="Combined-Shape"></path>
        </g>
    </g>
</svg>