<?xml version="1.0" encoding="UTF-8"?>
<svg width="314px" height="960px" viewBox="0 0 314 960" version="1.1" xmlns="http://www.w3.org/2000/svg" xmlns:xlink="http://www.w3.org/1999/xlink">
    <!-- Generator: Sketch 45.2 (43514) - http://www.bohemiancoding.com/sketch -->
    <title>BY MATEO BY MATEO BY</title>
    <desc>Created with Sketch.</desc>
    <defs></defs>
    <g id="Page-1" stroke="none" stroke-width="1" fill="none" fill-rule="evenodd">
        <g id="Mobile" transform="translate(0.000000, -13.000000)" fill="#f7f7f7">
            <path d="M0.666503906,60 L8.69628906,13.7890625 L23.1054688,13.8208008 C28.4586856,13.8419597 32.4788277,14.9316298 35.1660156,17.0898438 C37.8532035,19.2480577 39.0698255,22.2843229 38.815918,26.1987305 C38.5196925,30.8748606 35.8219656,34.2919814 30.7226562,36.4501953 C32.5634858,37.0849641 33.9916941,38.2751378 35.0073242,40.020752 C36.0229543,41.7663661 36.4567065,43.8240441 36.3085938,46.1938477 C36.0123683,50.5525934 34.3038079,53.9432659 31.1828613,56.3659668 C28.0619147,58.7886677 23.8037379,60 18.4082031,60 L0.666503906,60 Z M13.4887695,39.8779297 L11.2988281,52.3510742 L18.6303711,52.3828125 C20.9155388,52.3828125 22.8303959,51.8168188 24.375,50.6848145 C25.9196041,49.5528101 26.840005,48.0240982 27.1362305,46.0986328 C27.4324559,44.1943264 27.1732625,42.7079318 26.3586426,41.6394043 C25.5440226,40.5708768 24.1740005,39.9943038 22.2485352,39.909668 L13.4887695,39.8779297 Z M14.6313477,33.1494141 L20.9472656,33.2128906 C23.2959102,33.1705727 25.216057,32.620448 26.7077637,31.5625 C28.1994703,30.504552 29.093423,29.0340263 29.3896484,27.1508789 C29.9186224,23.426902 27.961448,21.5543621 23.5180664,21.5332031 L16.6625977,21.5014648 L14.6313477,33.1494141 Z M60.128418,34.5458984 L73.0458984,13.7890625 L83.7099609,13.7890625 L63.5244141,43.75 L60.7314453,60 L51.2734375,60 L54.2885742,42.7026367 L44.7036133,13.8208008 L54.5107422,13.7890625 L60.128418,34.5458984 Z M117.765625,13.7890625 L123.446777,47.2094727 L140.680664,13.7890625 L153.058594,13.7890625 L145.028809,60 L135.697754,60 L137.98291,46.8286133 L142.489746,26.262207 L124.779785,60 L118.400391,60 L112.211426,25.0878906 L109.228027,47.8442383 L107.101562,60 L97.8022461,60 L105.832031,13.7890625 L117.765625,13.7890625 Z M182.083496,50.4785156 L165.960449,50.4785156 L161.199707,60 L150.948242,60 L175.640625,13.7890625 L184.241699,13.7890625 L193.033203,60 L183.543457,60 L182.083496,50.4785156 Z M169.769043,42.7661133 L180.90918,42.7661133 L178.306641,25.5639648 L169.769043,42.7661133 Z M235.324707,21.5014648 L221.61377,21.5014648 L214.94873,60 L205.649414,60 L212.314453,21.5014648 L198.762207,21.5014648 L200.126953,13.7890625 L236.689453,13.7890625 L235.324707,21.5014648 Z M265.682617,39.9731445 L247.972656,39.9731445 L245.814453,52.3510742 L266.634766,52.3510742 L265.301758,60 L235.182129,60 L243.211914,13.7890625 L273.268066,13.7890625 L271.90332,21.5014648 L251.178223,21.5014648 L249.242188,32.5146484 L267.015625,32.5146484 L265.682617,39.9731445 Z M290.518066,60.6347656 C287.450017,60.5712887 284.747001,59.8466052 282.408936,58.4606934 C280.07087,57.0747815 278.219489,55.0752898 276.854736,52.4621582 C275.489983,49.8490266 274.701824,46.8497891 274.490234,43.4643555 C274.257486,39.994286 274.627762,36.2915236 275.601074,32.355957 C276.574386,28.4203905 278.140126,24.9609524 280.29834,21.9775391 C282.456554,18.9941257 284.990301,16.7618889 287.899658,15.2807617 C290.809015,13.7996345 293.956363,13.09082 297.341797,13.1542969 C300.452164,13.2177738 303.17105,13.9530366 305.498535,15.3601074 C307.826021,16.7671783 309.656243,18.7878286 310.989258,21.4221191 C312.322272,24.0564097 313.083983,27.0450679 313.274414,30.3881836 C313.486004,34.1121605 313.083989,37.9418749 312.068359,41.8774414 C311.052729,45.813008 309.47641,49.2195494 307.339355,52.097168 C305.202301,54.9747865 302.700291,57.1329681 299.833252,58.5717773 C296.966213,60.0105866 293.861182,60.6982425 290.518066,60.6347656 Z M303.689453,35.625 L303.943359,32.6098633 C304.154949,28.8435684 303.652431,25.9871517 302.435791,24.0405273 C301.219151,22.093903 299.373059,21.0782882 296.897461,20.9936523 C293.025371,20.8666986 289.952078,22.5805486 287.67749,26.1352539 C285.402902,29.6899592 284.117515,34.6622402 283.821289,41.0522461 C283.609699,44.797382 284.106928,47.6802471 285.312988,49.7009277 C286.519049,51.7216084 288.391589,52.7742509 290.930664,52.8588867 C294.252621,53.0069994 297.003244,51.7110326 299.182617,48.9709473 C301.36199,46.230862 302.790198,42.3535407 303.467285,37.3388672 L303.689453,35.625 Z M0.666503906,136 L8.69628906,89.7890625 L23.1054688,89.8208008 C28.4586856,89.8419597 32.4788277,90.9316298 35.1660156,93.0898438 C37.8532035,95.2480577 39.0698255,98.2843229 38.815918,102.19873 C38.5196925,106.874861 35.8219656,110.291981 30.7226562,112.450195 C32.5634858,113.084964 33.9916941,114.275138 35.0073242,116.020752 C36.0229543,117.766366 36.4567065,119.824044 36.3085938,122.193848 C36.0123683,126.552593 34.3038079,129.943266 31.1828613,132.365967 C28.0619147,134.788668 23.8037379,136 18.4082031,136 L0.666503906,136 Z M13.4887695,115.87793 L11.2988281,128.351074 L18.6303711,128.382812 C20.9155388,128.382812 22.8303959,127.816819 24.375,126.684814 C25.9196041,125.55281 26.840005,124.024098 27.1362305,122.098633 C27.4324559,120.194326 27.1732625,118.707932 26.3586426,117.639404 C25.5440226,116.570877 24.1740005,115.994304 22.2485352,115.909668 L13.4887695,115.87793 Z M14.6313477,109.149414 L20.9472656,109.212891 C23.2959102,109.170573 25.216057,108.620448 26.7077637,107.5625 C28.1994703,106.504552 29.093423,105.034026 29.3896484,103.150879 C29.9186224,99.426902 27.961448,97.5543621 23.5180664,97.5332031 L16.6625977,97.5014648 L14.6313477,109.149414 Z M60.128418,110.545898 L73.0458984,89.7890625 L83.7099609,89.7890625 L63.5244141,119.75 L60.7314453,136 L51.2734375,136 L54.2885742,118.702637 L44.7036133,89.8208008 L54.5107422,89.7890625 L60.128418,110.545898 Z M117.765625,89.7890625 L123.446777,123.209473 L140.680664,89.7890625 L153.058594,89.7890625 L145.028809,136 L135.697754,136 L137.98291,122.828613 L142.489746,102.262207 L124.779785,136 L118.400391,136 L112.211426,101.087891 L109.228027,123.844238 L107.101562,136 L97.8022461,136 L105.832031,89.7890625 L117.765625,89.7890625 Z M182.083496,126.478516 L165.960449,126.478516 L161.199707,136 L150.948242,136 L175.640625,89.7890625 L184.241699,89.7890625 L193.033203,136 L183.543457,136 L182.083496,126.478516 Z M169.769043,118.766113 L180.90918,118.766113 L178.306641,101.563965 L169.769043,118.766113 Z M235.324707,97.5014648 L221.61377,97.5014648 L214.94873,136 L205.649414,136 L212.314453,97.5014648 L198.762207,97.5014648 L200.126953,89.7890625 L236.689453,89.7890625 L235.324707,97.5014648 Z M265.682617,115.973145 L247.972656,115.973145 L245.814453,128.351074 L266.634766,128.351074 L265.301758,136 L235.182129,136 L243.211914,89.7890625 L273.268066,89.7890625 L271.90332,97.5014648 L251.178223,97.5014648 L249.242188,108.514648 L267.015625,108.514648 L265.682617,115.973145 Z M290.518066,136.634766 C287.450017,136.571289 284.747001,135.846605 282.408936,134.460693 C280.07087,133.074781 278.219489,131.07529 276.854736,128.462158 C275.489983,125.849027 274.701824,122.849789 274.490234,119.464355 C274.257486,115.994286 274.627762,112.291524 275.601074,108.355957 C276.574386,104.42039 278.140126,100.960952 280.29834,97.9775391 C282.456554,94.9941257 284.990301,92.7618889 287.899658,91.2807617 C290.809015,89.7996345 293.956363,89.09082 297.341797,89.1542969 C300.452164,89.2177738 303.17105,89.9530366 305.498535,91.3601074 C307.826021,92.7671783 309.656243,94.7878286 310.989258,97.4221191 C312.322272,100.05641 313.083983,103.045068 313.274414,106.388184 C313.486004,110.112161 313.083989,113.941875 312.068359,117.877441 C311.052729,121.813008 309.47641,125.219549 307.339355,128.097168 C305.202301,130.974787 302.700291,133.132968 299.833252,134.571777 C296.966213,136.010587 293.861182,136.698243 290.518066,136.634766 Z M303.689453,111.625 L303.943359,108.609863 C304.154949,104.843568 303.652431,101.987152 302.435791,100.040527 C301.219151,98.093903 299.373059,97.0782882 296.897461,96.9936523 C293.025371,96.8666986 289.952078,98.5805486 287.67749,102.135254 C285.402902,105.689959 284.117515,110.66224 283.821289,117.052246 C283.609699,120.797382 284.106928,123.680247 285.312988,125.700928 C286.519049,127.721608 288.391589,128.774251 290.930664,128.858887 C294.252621,129.006999 297.003244,127.711033 299.182617,124.970947 C301.36199,122.230862 302.790198,118.353541 303.467285,113.338867 L303.689453,111.625 Z M0.666503906,212 L8.69628906,165.789062 L23.1054688,165.820801 C28.4586856,165.84196 32.4788277,166.93163 35.1660156,169.089844 C37.8532035,171.248058 39.0698255,174.284323 38.815918,178.19873 C38.5196925,182.874861 35.8219656,186.291981 30.7226562,188.450195 C32.5634858,189.084964 33.9916941,190.275138 35.0073242,192.020752 C36.0229543,193.766366 36.4567065,195.824044 36.3085938,198.193848 C36.0123683,202.552593 34.3038079,205.943266 31.1828613,208.365967 C28.0619147,210.788668 23.8037379,212 18.4082031,212 L0.666503906,212 Z M13.4887695,191.87793 L11.2988281,204.351074 L18.6303711,204.382812 C20.9155388,204.382812 22.8303959,203.816819 24.375,202.684814 C25.9196041,201.55281 26.840005,200.024098 27.1362305,198.098633 C27.4324559,196.194326 27.1732625,194.707932 26.3586426,193.639404 C25.5440226,192.570877 24.1740005,191.994304 22.2485352,191.909668 L13.4887695,191.87793 Z M14.6313477,185.149414 L20.9472656,185.212891 C23.2959102,185.170573 25.216057,184.620448 26.7077637,183.5625 C28.1994703,182.504552 29.093423,181.034026 29.3896484,179.150879 C29.9186224,175.426902 27.961448,173.554362 23.5180664,173.533203 L16.6625977,173.501465 L14.6313477,185.149414 Z M60.128418,186.545898 L73.0458984,165.789062 L83.7099609,165.789062 L63.5244141,195.75 L60.7314453,212 L51.2734375,212 L54.2885742,194.702637 L44.7036133,165.820801 L54.5107422,165.789062 L60.128418,186.545898 Z M117.765625,165.789062 L123.446777,199.209473 L140.680664,165.789062 L153.058594,165.789062 L145.028809,212 L135.697754,212 L137.98291,198.828613 L142.489746,178.262207 L124.779785,212 L118.400391,212 L112.211426,177.087891 L109.228027,199.844238 L107.101562,212 L97.8022461,212 L105.832031,165.789062 L117.765625,165.789062 Z M182.083496,202.478516 L165.960449,202.478516 L161.199707,212 L150.948242,212 L175.640625,165.789062 L184.241699,165.789062 L193.033203,212 L183.543457,212 L182.083496,202.478516 Z M169.769043,194.766113 L180.90918,194.766113 L178.306641,177.563965 L169.769043,194.766113 Z M235.324707,173.501465 L221.61377,173.501465 L214.94873,212 L205.649414,212 L212.314453,173.501465 L198.762207,173.501465 L200.126953,165.789062 L236.689453,165.789062 L235.324707,173.501465 Z M265.682617,191.973145 L247.972656,191.973145 L245.814453,204.351074 L266.634766,204.351074 L265.301758,212 L235.182129,212 L243.211914,165.789062 L273.268066,165.789062 L271.90332,173.501465 L251.178223,173.501465 L249.242188,184.514648 L267.015625,184.514648 L265.682617,191.973145 Z M290.518066,212.634766 C287.450017,212.571289 284.747001,211.846605 282.408936,210.460693 C280.07087,209.074781 278.219489,207.07529 276.854736,204.462158 C275.489983,201.849027 274.701824,198.849789 274.490234,195.464355 C274.257486,191.994286 274.627762,188.291524 275.601074,184.355957 C276.574386,180.42039 278.140126,176.960952 280.29834,173.977539 C282.456554,170.994126 284.990301,168.761889 287.899658,167.280762 C290.809015,165.799635 293.956363,165.09082 297.341797,165.154297 C300.452164,165.217774 303.17105,165.953037 305.498535,167.360107 C307.826021,168.767178 309.656243,170.787829 310.989258,173.422119 C312.322272,176.05641 313.083983,179.045068 313.274414,182.388184 C313.486004,186.112161 313.083989,189.941875 312.068359,193.877441 C311.052729,197.813008 309.47641,201.219549 307.339355,204.097168 C305.202301,206.974787 302.700291,209.132968 299.833252,210.571777 C296.966213,212.010587 293.861182,212.698243 290.518066,212.634766 Z M303.689453,187.625 L303.943359,184.609863 C304.154949,180.843568 303.652431,177.987152 302.435791,176.040527 C301.219151,174.093903 299.373059,173.078288 296.897461,172.993652 C293.025371,172.866699 289.952078,174.580549 287.67749,178.135254 C285.402902,181.689959 284.117515,186.66224 283.821289,193.052246 C283.609699,196.797382 284.106928,199.680247 285.312988,201.700928 C286.519049,203.721608 288.391589,204.774251 290.930664,204.858887 C294.252621,205.006999 297.003244,203.711033 299.182617,200.970947 C301.36199,198.230862 302.790198,194.353541 303.467285,189.338867 L303.689453,187.625 Z M0.666503906,288 L8.69628906,241.789063 L23.1054688,241.820801 C28.4586856,241.84196 32.4788277,242.93163 35.1660156,245.089844 C37.8532035,247.248058 39.0698255,250.284323 38.815918,254.19873 C38.5196925,258.874861 35.8219656,262.291981 30.7226562,264.450195 C32.5634858,265.084964 33.9916941,266.275138 35.0073242,268.020752 C36.0229543,269.766366 36.4567065,271.824044 36.3085938,274.193848 C36.0123683,278.552593 34.3038079,281.943266 31.1828613,284.365967 C28.0619147,286.788668 23.8037379,288 18.4082031,288 L0.666503906,288 Z M13.4887695,267.87793 L11.2988281,280.351074 L18.6303711,280.382812 C20.9155388,280.382812 22.8303959,279.816819 24.375,278.684814 C25.9196041,277.55281 26.840005,276.024098 27.1362305,274.098633 C27.4324559,272.194326 27.1732625,270.707932 26.3586426,269.639404 C25.5440226,268.570877 24.1740005,267.994304 22.2485352,267.909668 L13.4887695,267.87793 Z M14.6313477,261.149414 L20.9472656,261.212891 C23.2959102,261.170573 25.216057,260.620448 26.7077637,259.5625 C28.1994703,258.504552 29.093423,257.034026 29.3896484,255.150879 C29.9186224,251.426902 27.961448,249.554362 23.5180664,249.533203 L16.6625977,249.501465 L14.6313477,261.149414 Z M60.128418,262.545898 L73.0458984,241.789063 L83.7099609,241.789063 L63.5244141,271.75 L60.7314453,288 L51.2734375,288 L54.2885742,270.702637 L44.7036133,241.820801 L54.5107422,241.789063 L60.128418,262.545898 Z M117.765625,241.789063 L123.446777,275.209473 L140.680664,241.789063 L153.058594,241.789063 L145.028809,288 L135.697754,288 L137.98291,274.828613 L142.489746,254.262207 L124.779785,288 L118.400391,288 L112.211426,253.087891 L109.228027,275.844238 L107.101562,288 L97.8022461,288 L105.832031,241.789063 L117.765625,241.789063 Z M182.083496,278.478516 L165.960449,278.478516 L161.199707,288 L150.948242,288 L175.640625,241.789063 L184.241699,241.789063 L193.033203,288 L183.543457,288 L182.083496,278.478516 Z M169.769043,270.766113 L180.90918,270.766113 L178.306641,253.563965 L169.769043,270.766113 Z M235.324707,249.501465 L221.61377,249.501465 L214.94873,288 L205.649414,288 L212.314453,249.501465 L198.762207,249.501465 L200.126953,241.789063 L236.689453,241.789063 L235.324707,249.501465 Z M265.682617,267.973145 L247.972656,267.973145 L245.814453,280.351074 L266.634766,280.351074 L265.301758,288 L235.182129,288 L243.211914,241.789063 L273.268066,241.789063 L271.90332,249.501465 L251.178223,249.501465 L249.242188,260.514648 L267.015625,260.514648 L265.682617,267.973145 Z M290.518066,288.634766 C287.450017,288.571289 284.747001,287.846605 282.408936,286.460693 C280.07087,285.074781 278.219489,283.07529 276.854736,280.462158 C275.489983,277.849027 274.701824,274.849789 274.490234,271.464355 C274.257486,267.994286 274.627762,264.291524 275.601074,260.355957 C276.574386,256.42039 278.140126,252.960952 280.29834,249.977539 C282.456554,246.994126 284.990301,244.761889 287.899658,243.280762 C290.809015,241.799635 293.956363,241.09082 297.341797,241.154297 C300.452164,241.217774 303.17105,241.953037 305.498535,243.360107 C307.826021,244.767178 309.656243,246.787829 310.989258,249.422119 C312.322272,252.05641 313.083983,255.045068 313.274414,258.388184 C313.486004,262.112161 313.083989,265.941875 312.068359,269.877441 C311.052729,273.813008 309.47641,277.219549 307.339355,280.097168 C305.202301,282.974787 302.700291,285.132968 299.833252,286.571777 C296.966213,288.010587 293.861182,288.698243 290.518066,288.634766 Z M303.689453,263.625 L303.943359,260.609863 C304.154949,256.843568 303.652431,253.987152 302.435791,252.040527 C301.219151,250.093903 299.373059,249.078288 296.897461,248.993652 C293.025371,248.866699 289.952078,250.580549 287.67749,254.135254 C285.402902,257.689959 284.117515,262.66224 283.821289,269.052246 C283.609699,272.797382 284.106928,275.680247 285.312988,277.700928 C286.519049,279.721608 288.391589,280.774251 290.930664,280.858887 C294.252621,281.006999 297.003244,279.711033 299.182617,276.970947 C301.36199,274.230862 302.790198,270.353541 303.467285,265.338867 L303.689453,263.625 Z M0.666503906,364 L8.69628906,317.789062 L23.1054688,317.820801 C28.4586856,317.84196 32.4788277,318.93163 35.1660156,321.089844 C37.8532035,323.248058 39.0698255,326.284323 38.815918,330.19873 C38.5196925,334.874861 35.8219656,338.291981 30.7226562,340.450195 C32.5634858,341.084964 33.9916941,342.275138 35.0073242,344.020752 C36.0229543,345.766366 36.4567065,347.824044 36.3085938,350.193848 C36.0123683,354.552593 34.3038079,357.943266 31.1828613,360.365967 C28.0619147,362.788668 23.8037379,364 18.4082031,364 L0.666503906,364 Z M13.4887695,343.87793 L11.2988281,356.351074 L18.6303711,356.382812 C20.9155388,356.382812 22.8303959,355.816819 24.375,354.684814 C25.9196041,353.55281 26.840005,352.024098 27.1362305,350.098633 C27.4324559,348.194326 27.1732625,346.707932 26.3586426,345.639404 C25.5440226,344.570877 24.1740005,343.994304 22.2485352,343.909668 L13.4887695,343.87793 Z M14.6313477,337.149414 L20.9472656,337.212891 C23.2959102,337.170573 25.216057,336.620448 26.7077637,335.5625 C28.1994703,334.504552 29.093423,333.034026 29.3896484,331.150879 C29.9186224,327.426902 27.961448,325.554362 23.5180664,325.533203 L16.6625977,325.501465 L14.6313477,337.149414 Z M60.128418,338.545898 L73.0458984,317.789062 L83.7099609,317.789062 L63.5244141,347.75 L60.7314453,364 L51.2734375,364 L54.2885742,346.702637 L44.7036133,317.820801 L54.5107422,317.789062 L60.128418,338.545898 Z M117.765625,317.789062 L123.446777,351.209473 L140.680664,317.789062 L153.058594,317.789062 L145.028809,364 L135.697754,364 L137.98291,350.828613 L142.489746,330.262207 L124.779785,364 L118.400391,364 L112.211426,329.087891 L109.228027,351.844238 L107.101562,364 L97.8022461,364 L105.832031,317.789062 L117.765625,317.789062 Z M182.083496,354.478516 L165.960449,354.478516 L161.199707,364 L150.948242,364 L175.640625,317.789062 L184.241699,317.789062 L193.033203,364 L183.543457,364 L182.083496,354.478516 Z M169.769043,346.766113 L180.90918,346.766113 L178.306641,329.563965 L169.769043,346.766113 Z M235.324707,325.501465 L221.61377,325.501465 L214.94873,364 L205.649414,364 L212.314453,325.501465 L198.762207,325.501465 L200.126953,317.789062 L236.689453,317.789062 L235.324707,325.501465 Z M265.682617,343.973145 L247.972656,343.973145 L245.814453,356.351074 L266.634766,356.351074 L265.301758,364 L235.182129,364 L243.211914,317.789062 L273.268066,317.789062 L271.90332,325.501465 L251.178223,325.501465 L249.242188,336.514648 L267.015625,336.514648 L265.682617,343.973145 Z M290.518066,364.634766 C287.450017,364.571289 284.747001,363.846605 282.408936,362.460693 C280.07087,361.074781 278.219489,359.07529 276.854736,356.462158 C275.489983,353.849027 274.701824,350.849789 274.490234,347.464355 C274.257486,343.994286 274.627762,340.291524 275.601074,336.355957 C276.574386,332.42039 278.140126,328.960952 280.29834,325.977539 C282.456554,322.994126 284.990301,320.761889 287.899658,319.280762 C290.809015,317.799635 293.956363,317.09082 297.341797,317.154297 C300.452164,317.217774 303.17105,317.953037 305.498535,319.360107 C307.826021,320.767178 309.656243,322.787829 310.989258,325.422119 C312.322272,328.05641 313.083983,331.045068 313.274414,334.388184 C313.486004,338.112161 313.083989,341.941875 312.068359,345.877441 C311.052729,349.813008 309.47641,353.219549 307.339355,356.097168 C305.202301,358.974787 302.700291,361.132968 299.833252,362.571777 C296.966213,364.010587 293.861182,364.698243 290.518066,364.634766 Z M303.689453,339.625 L303.943359,336.609863 C304.154949,332.843568 303.652431,329.987152 302.435791,328.040527 C301.219151,326.093903 299.373059,325.078288 296.897461,324.993652 C293.025371,324.866699 289.952078,326.580549 287.67749,330.135254 C285.402902,333.689959 284.117515,338.66224 283.821289,345.052246 C283.609699,348.797382 284.106928,351.680247 285.312988,353.700928 C286.519049,355.721608 288.391589,356.774251 290.930664,356.858887 C294.252621,357.006999 297.003244,355.711033 299.182617,352.970947 C301.36199,350.230862 302.790198,346.353541 303.467285,341.338867 L303.689453,339.625 Z M0.666503906,440 L8.69628906,393.789062 L23.1054688,393.820801 C28.4586856,393.84196 32.4788277,394.93163 35.1660156,397.089844 C37.8532035,399.248058 39.0698255,402.284323 38.815918,406.19873 C38.5196925,410.874861 35.8219656,414.291981 30.7226562,416.450195 C32.5634858,417.084964 33.9916941,418.275138 35.0073242,420.020752 C36.0229543,421.766366 36.4567065,423.824044 36.3085938,426.193848 C36.0123683,430.552593 34.3038079,433.943266 31.1828613,436.365967 C28.0619147,438.788668 23.8037379,440 18.4082031,440 L0.666503906,440 Z M13.4887695,419.87793 L11.2988281,432.351074 L18.6303711,432.382812 C20.9155388,432.382812 22.8303959,431.816819 24.375,430.684814 C25.9196041,429.55281 26.840005,428.024098 27.1362305,426.098633 C27.4324559,424.194326 27.1732625,422.707932 26.3586426,421.639404 C25.5440226,420.570877 24.1740005,419.994304 22.2485352,419.909668 L13.4887695,419.87793 Z M14.6313477,413.149414 L20.9472656,413.212891 C23.2959102,413.170573 25.216057,412.620448 26.7077637,411.5625 C28.1994703,410.504552 29.093423,409.034026 29.3896484,407.150879 C29.9186224,403.426902 27.961448,401.554362 23.5180664,401.533203 L16.6625977,401.501465 L14.6313477,413.149414 Z M60.128418,414.545898 L73.0458984,393.789062 L83.7099609,393.789062 L63.5244141,423.75 L60.7314453,440 L51.2734375,440 L54.2885742,422.702637 L44.7036133,393.820801 L54.5107422,393.789062 L60.128418,414.545898 Z M117.765625,393.789062 L123.446777,427.209473 L140.680664,393.789062 L153.058594,393.789062 L145.028809,440 L135.697754,440 L137.98291,426.828613 L142.489746,406.262207 L124.779785,440 L118.400391,440 L112.211426,405.087891 L109.228027,427.844238 L107.101562,440 L97.8022461,440 L105.832031,393.789062 L117.765625,393.789062 Z M182.083496,430.478516 L165.960449,430.478516 L161.199707,440 L150.948242,440 L175.640625,393.789062 L184.241699,393.789062 L193.033203,440 L183.543457,440 L182.083496,430.478516 Z M169.769043,422.766113 L180.90918,422.766113 L178.306641,405.563965 L169.769043,422.766113 Z M235.324707,401.501465 L221.61377,401.501465 L214.94873,440 L205.649414,440 L212.314453,401.501465 L198.762207,401.501465 L200.126953,393.789062 L236.689453,393.789062 L235.324707,401.501465 Z M265.682617,419.973145 L247.972656,419.973145 L245.814453,432.351074 L266.634766,432.351074 L265.301758,440 L235.182129,440 L243.211914,393.789062 L273.268066,393.789062 L271.90332,401.501465 L251.178223,401.501465 L249.242188,412.514648 L267.015625,412.514648 L265.682617,419.973145 Z M290.518066,440.634766 C287.450017,440.571289 284.747001,439.846605 282.408936,438.460693 C280.07087,437.074781 278.219489,435.07529 276.854736,432.462158 C275.489983,429.849027 274.701824,426.849789 274.490234,423.464355 C274.257486,419.994286 274.627762,416.291524 275.601074,412.355957 C276.574386,408.42039 278.140126,404.960952 280.29834,401.977539 C282.456554,398.994126 284.990301,396.761889 287.899658,395.280762 C290.809015,393.799635 293.956363,393.09082 297.341797,393.154297 C300.452164,393.217774 303.17105,393.953037 305.498535,395.360107 C307.826021,396.767178 309.656243,398.787829 310.989258,401.422119 C312.322272,404.05641 313.083983,407.045068 313.274414,410.388184 C313.486004,414.112161 313.083989,417.941875 312.068359,421.877441 C311.052729,425.813008 309.47641,429.219549 307.339355,432.097168 C305.202301,434.974787 302.700291,437.132968 299.833252,438.571777 C296.966213,440.010587 293.861182,440.698243 290.518066,440.634766 Z M303.689453,415.625 L303.943359,412.609863 C304.154949,408.843568 303.652431,405.987152 302.435791,404.040527 C301.219151,402.093903 299.373059,401.078288 296.897461,400.993652 C293.025371,400.866699 289.952078,402.580549 287.67749,406.135254 C285.402902,409.689959 284.117515,414.66224 283.821289,421.052246 C283.609699,424.797382 284.106928,427.680247 285.312988,429.700928 C286.519049,431.721608 288.391589,432.774251 290.930664,432.858887 C294.252621,433.006999 297.003244,431.711033 299.182617,428.970947 C301.36199,426.230862 302.790198,422.353541 303.467285,417.338867 L303.689453,415.625 Z M0.666503906,516 L8.69628906,469.789062 L23.1054688,469.820801 C28.4586856,469.84196 32.4788277,470.93163 35.1660156,473.089844 C37.8532035,475.248058 39.0698255,478.284323 38.815918,482.19873 C38.5196925,486.874861 35.8219656,490.291981 30.7226562,492.450195 C32.5634858,493.084964 33.9916941,494.275138 35.0073242,496.020752 C36.0229543,497.766366 36.4567065,499.824044 36.3085938,502.193848 C36.0123683,506.552593 34.3038079,509.943266 31.1828613,512.365967 C28.0619147,514.788668 23.8037379,516 18.4082031,516 L0.666503906,516 Z M13.4887695,495.87793 L11.2988281,508.351074 L18.6303711,508.382812 C20.9155388,508.382812 22.8303959,507.816819 24.375,506.684814 C25.9196041,505.55281 26.840005,504.024098 27.1362305,502.098633 C27.4324559,500.194326 27.1732625,498.707932 26.3586426,497.639404 C25.5440226,496.570877 24.1740005,495.994304 22.2485352,495.909668 L13.4887695,495.87793 Z M14.6313477,489.149414 L20.9472656,489.212891 C23.2959102,489.170573 25.216057,488.620448 26.7077637,487.5625 C28.1994703,486.504552 29.093423,485.034026 29.3896484,483.150879 C29.9186224,479.426902 27.961448,477.554362 23.5180664,477.533203 L16.6625977,477.501465 L14.6313477,489.149414 Z M60.128418,490.545898 L73.0458984,469.789062 L83.7099609,469.789062 L63.5244141,499.75 L60.7314453,516 L51.2734375,516 L54.2885742,498.702637 L44.7036133,469.820801 L54.5107422,469.789062 L60.128418,490.545898 Z M117.765625,469.789062 L123.446777,503.209473 L140.680664,469.789062 L153.058594,469.789062 L145.028809,516 L135.697754,516 L137.98291,502.828613 L142.489746,482.262207 L124.779785,516 L118.400391,516 L112.211426,481.087891 L109.228027,503.844238 L107.101562,516 L97.8022461,516 L105.832031,469.789062 L117.765625,469.789062 Z M182.083496,506.478516 L165.960449,506.478516 L161.199707,516 L150.948242,516 L175.640625,469.789062 L184.241699,469.789062 L193.033203,516 L183.543457,516 L182.083496,506.478516 Z M169.769043,498.766113 L180.90918,498.766113 L178.306641,481.563965 L169.769043,498.766113 Z M235.324707,477.501465 L221.61377,477.501465 L214.94873,516 L205.649414,516 L212.314453,477.501465 L198.762207,477.501465 L200.126953,469.789062 L236.689453,469.789062 L235.324707,477.501465 Z M265.682617,495.973145 L247.972656,495.973145 L245.814453,508.351074 L266.634766,508.351074 L265.301758,516 L235.182129,516 L243.211914,469.789062 L273.268066,469.789062 L271.90332,477.501465 L251.178223,477.501465 L249.242188,488.514648 L267.015625,488.514648 L265.682617,495.973145 Z M290.518066,516.634766 C287.450017,516.571289 284.747001,515.846605 282.408936,514.460693 C280.07087,513.074781 278.219489,511.07529 276.854736,508.462158 C275.489983,505.849027 274.701824,502.849789 274.490234,499.464355 C274.257486,495.994286 274.627762,492.291524 275.601074,488.355957 C276.574386,484.42039 278.140126,480.960952 280.29834,477.977539 C282.456554,474.994126 284.990301,472.761889 287.899658,471.280762 C290.809015,469.799635 293.956363,469.09082 297.341797,469.154297 C300.452164,469.217774 303.17105,469.953037 305.498535,471.360107 C307.826021,472.767178 309.656243,474.787829 310.989258,477.422119 C312.322272,480.05641 313.083983,483.045068 313.274414,486.388184 C313.486004,490.112161 313.083989,493.941875 312.068359,497.877441 C311.052729,501.813008 309.47641,505.219549 307.339355,508.097168 C305.202301,510.974787 302.700291,513.132968 299.833252,514.571777 C296.966213,516.010587 293.861182,516.698243 290.518066,516.634766 Z M303.689453,491.625 L303.943359,488.609863 C304.154949,484.843568 303.652431,481.987152 302.435791,480.040527 C301.219151,478.093903 299.373059,477.078288 296.897461,476.993652 C293.025371,476.866699 289.952078,478.580549 287.67749,482.135254 C285.402902,485.689959 284.117515,490.66224 283.821289,497.052246 C283.609699,500.797382 284.106928,503.680247 285.312988,505.700928 C286.519049,507.721608 288.391589,508.774251 290.930664,508.858887 C294.252621,509.006999 297.003244,507.711033 299.182617,504.970947 C301.36199,502.230862 302.790198,498.353541 303.467285,493.338867 L303.689453,491.625 Z M0.666503906,592 L8.69628906,545.789062 L23.1054688,545.820801 C28.4586856,545.84196 32.4788277,546.93163 35.1660156,549.089844 C37.8532035,551.248058 39.0698255,554.284323 38.815918,558.19873 C38.5196925,562.874861 35.8219656,566.291981 30.7226562,568.450195 C32.5634858,569.084964 33.9916941,570.275138 35.0073242,572.020752 C36.0229543,573.766366 36.4567065,575.824044 36.3085938,578.193848 C36.0123683,582.552593 34.3038079,585.943266 31.1828613,588.365967 C28.0619147,590.788668 23.8037379,592 18.4082031,592 L0.666503906,592 Z M13.4887695,571.87793 L11.2988281,584.351074 L18.6303711,584.382812 C20.9155388,584.382812 22.8303959,583.816819 24.375,582.684814 C25.9196041,581.55281 26.840005,580.024098 27.1362305,578.098633 C27.4324559,576.194326 27.1732625,574.707932 26.3586426,573.639404 C25.5440226,572.570877 24.1740005,571.994304 22.2485352,571.909668 L13.4887695,571.87793 Z M14.6313477,565.149414 L20.9472656,565.212891 C23.2959102,565.170573 25.216057,564.620448 26.7077637,563.5625 C28.1994703,562.504552 29.093423,561.034026 29.3896484,559.150879 C29.9186224,555.426902 27.961448,553.554362 23.5180664,553.533203 L16.6625977,553.501465 L14.6313477,565.149414 Z M60.128418,566.545898 L73.0458984,545.789062 L83.7099609,545.789062 L63.5244141,575.75 L60.7314453,592 L51.2734375,592 L54.2885742,574.702637 L44.7036133,545.820801 L54.5107422,545.789062 L60.128418,566.545898 Z M117.765625,545.789062 L123.446777,579.209473 L140.680664,545.789062 L153.058594,545.789062 L145.028809,592 L135.697754,592 L137.98291,578.828613 L142.489746,558.262207 L124.779785,592 L118.400391,592 L112.211426,557.087891 L109.228027,579.844238 L107.101562,592 L97.8022461,592 L105.832031,545.789062 L117.765625,545.789062 Z M182.083496,582.478516 L165.960449,582.478516 L161.199707,592 L150.948242,592 L175.640625,545.789062 L184.241699,545.789062 L193.033203,592 L183.543457,592 L182.083496,582.478516 Z M169.769043,574.766113 L180.90918,574.766113 L178.306641,557.563965 L169.769043,574.766113 Z M235.324707,553.501465 L221.61377,553.501465 L214.94873,592 L205.649414,592 L212.314453,553.501465 L198.762207,553.501465 L200.126953,545.789062 L236.689453,545.789062 L235.324707,553.501465 Z M265.682617,571.973145 L247.972656,571.973145 L245.814453,584.351074 L266.634766,584.351074 L265.301758,592 L235.182129,592 L243.211914,545.789062 L273.268066,545.789062 L271.90332,553.501465 L251.178223,553.501465 L249.242188,564.514648 L267.015625,564.514648 L265.682617,571.973145 Z M290.518066,592.634766 C287.450017,592.571289 284.747001,591.846605 282.408936,590.460693 C280.07087,589.074781 278.219489,587.07529 276.854736,584.462158 C275.489983,581.849027 274.701824,578.849789 274.490234,575.464355 C274.257486,571.994286 274.627762,568.291524 275.601074,564.355957 C276.574386,560.42039 278.140126,556.960952 280.29834,553.977539 C282.456554,550.994126 284.990301,548.761889 287.899658,547.280762 C290.809015,545.799635 293.956363,545.09082 297.341797,545.154297 C300.452164,545.217774 303.17105,545.953037 305.498535,547.360107 C307.826021,548.767178 309.656243,550.787829 310.989258,553.422119 C312.322272,556.05641 313.083983,559.045068 313.274414,562.388184 C313.486004,566.112161 313.083989,569.941875 312.068359,573.877441 C311.052729,577.813008 309.47641,581.219549 307.339355,584.097168 C305.202301,586.974787 302.700291,589.132968 299.833252,590.571777 C296.966213,592.010587 293.861182,592.698243 290.518066,592.634766 Z M303.689453,567.625 L303.943359,564.609863 C304.154949,560.843568 303.652431,557.987152 302.435791,556.040527 C301.219151,554.093903 299.373059,553.078288 296.897461,552.993652 C293.025371,552.866699 289.952078,554.580549 287.67749,558.135254 C285.402902,561.689959 284.117515,566.66224 283.821289,573.052246 C283.609699,576.797382 284.106928,579.680247 285.312988,581.700928 C286.519049,583.721608 288.391589,584.774251 290.930664,584.858887 C294.252621,585.006999 297.003244,583.711033 299.182617,580.970947 C301.36199,578.230862 302.790198,574.353541 303.467285,569.338867 L303.689453,567.625 Z M0.666503906,668 L8.69628906,621.789063 L23.1054688,621.820801 C28.4586856,621.84196 32.4788277,622.93163 35.1660156,625.089844 C37.8532035,627.248058 39.0698255,630.284323 38.815918,634.19873 C38.5196925,638.874861 35.8219656,642.291981 30.7226562,644.450195 C32.5634858,645.084964 33.9916941,646.275138 35.0073242,648.020752 C36.0229543,649.766366 36.4567065,651.824044 36.3085938,654.193848 C36.0123683,658.552593 34.3038079,661.943266 31.1828613,664.365967 C28.0619147,666.788668 23.8037379,668 18.4082031,668 L0.666503906,668 Z M13.4887695,647.87793 L11.2988281,660.351074 L18.6303711,660.382812 C20.9155388,660.382812 22.8303959,659.816819 24.375,658.684814 C25.9196041,657.55281 26.840005,656.024098 27.1362305,654.098633 C27.4324559,652.194326 27.1732625,650.707932 26.3586426,649.639404 C25.5440226,648.570877 24.1740005,647.994304 22.2485352,647.909668 L13.4887695,647.87793 Z M14.6313477,641.149414 L20.9472656,641.212891 C23.2959102,641.170573 25.216057,640.620448 26.7077637,639.5625 C28.1994703,638.504552 29.093423,637.034026 29.3896484,635.150879 C29.9186224,631.426902 27.961448,629.554362 23.5180664,629.533203 L16.6625977,629.501465 L14.6313477,641.149414 Z M60.128418,642.545898 L73.0458984,621.789063 L83.7099609,621.789063 L63.5244141,651.75 L60.7314453,668 L51.2734375,668 L54.2885742,650.702637 L44.7036133,621.820801 L54.5107422,621.789063 L60.128418,642.545898 Z M117.765625,621.789063 L123.446777,655.209473 L140.680664,621.789063 L153.058594,621.789063 L145.028809,668 L135.697754,668 L137.98291,654.828613 L142.489746,634.262207 L124.779785,668 L118.400391,668 L112.211426,633.087891 L109.228027,655.844238 L107.101562,668 L97.8022461,668 L105.832031,621.789063 L117.765625,621.789063 Z M182.083496,658.478516 L165.960449,658.478516 L161.199707,668 L150.948242,668 L175.640625,621.789063 L184.241699,621.789063 L193.033203,668 L183.543457,668 L182.083496,658.478516 Z M169.769043,650.766113 L180.90918,650.766113 L178.306641,633.563965 L169.769043,650.766113 Z M235.324707,629.501465 L221.61377,629.501465 L214.94873,668 L205.649414,668 L212.314453,629.501465 L198.762207,629.501465 L200.126953,621.789063 L236.689453,621.789063 L235.324707,629.501465 Z M265.682617,647.973145 L247.972656,647.973145 L245.814453,660.351074 L266.634766,660.351074 L265.301758,668 L235.182129,668 L243.211914,621.789063 L273.268066,621.789063 L271.90332,629.501465 L251.178223,629.501465 L249.242188,640.514648 L267.015625,640.514648 L265.682617,647.973145 Z M290.518066,668.634766 C287.450017,668.571289 284.747001,667.846605 282.408936,666.460693 C280.07087,665.074781 278.219489,663.07529 276.854736,660.462158 C275.489983,657.849027 274.701824,654.849789 274.490234,651.464355 C274.257486,647.994286 274.627762,644.291524 275.601074,640.355957 C276.574386,636.42039 278.140126,632.960952 280.29834,629.977539 C282.456554,626.994126 284.990301,624.761889 287.899658,623.280762 C290.809015,621.799635 293.956363,621.09082 297.341797,621.154297 C300.452164,621.217774 303.17105,621.953037 305.498535,623.360107 C307.826021,624.767178 309.656243,626.787829 310.989258,629.422119 C312.322272,632.05641 313.083983,635.045068 313.274414,638.388184 C313.486004,642.112161 313.083989,645.941875 312.068359,649.877441 C311.052729,653.813008 309.47641,657.219549 307.339355,660.097168 C305.202301,662.974787 302.700291,665.132968 299.833252,666.571777 C296.966213,668.010587 293.861182,668.698243 290.518066,668.634766 Z M303.689453,643.625 L303.943359,640.609863 C304.154949,636.843568 303.652431,633.987152 302.435791,632.040527 C301.219151,630.093903 299.373059,629.078288 296.897461,628.993652 C293.025371,628.866699 289.952078,630.580549 287.67749,634.135254 C285.402902,637.689959 284.117515,642.66224 283.821289,649.052246 C283.609699,652.797382 284.106928,655.680247 285.312988,657.700928 C286.519049,659.721608 288.391589,660.774251 290.930664,660.858887 C294.252621,661.006999 297.003244,659.711033 299.182617,656.970947 C301.36199,654.230862 302.790198,650.353541 303.467285,645.338867 L303.689453,643.625 Z M0.666503906,744 L8.69628906,697.789062 L23.1054688,697.820801 C28.4586856,697.84196 32.4788277,698.93163 35.1660156,701.089844 C37.8532035,703.248058 39.0698255,706.284323 38.815918,710.19873 C38.5196925,714.874861 35.8219656,718.291981 30.7226562,720.450195 C32.5634858,721.084964 33.9916941,722.275138 35.0073242,724.020752 C36.0229543,725.766366 36.4567065,727.824044 36.3085938,730.193848 C36.0123683,734.552593 34.3038079,737.943266 31.1828613,740.365967 C28.0619147,742.788668 23.8037379,744 18.4082031,744 L0.666503906,744 Z M13.4887695,723.87793 L11.2988281,736.351074 L18.6303711,736.382812 C20.9155388,736.382812 22.8303959,735.816819 24.375,734.684814 C25.9196041,733.55281 26.840005,732.024098 27.1362305,730.098633 C27.4324559,728.194326 27.1732625,726.707932 26.3586426,725.639404 C25.5440226,724.570877 24.1740005,723.994304 22.2485352,723.909668 L13.4887695,723.87793 Z M14.6313477,717.149414 L20.9472656,717.212891 C23.2959102,717.170573 25.216057,716.620448 26.7077637,715.5625 C28.1994703,714.504552 29.093423,713.034026 29.3896484,711.150879 C29.9186224,707.426902 27.961448,705.554362 23.5180664,705.533203 L16.6625977,705.501465 L14.6313477,717.149414 Z M60.128418,718.545898 L73.0458984,697.789062 L83.7099609,697.789062 L63.5244141,727.75 L60.7314453,744 L51.2734375,744 L54.2885742,726.702637 L44.7036133,697.820801 L54.5107422,697.789062 L60.128418,718.545898 Z M117.765625,697.789062 L123.446777,731.209473 L140.680664,697.789062 L153.058594,697.789062 L145.028809,744 L135.697754,744 L137.98291,730.828613 L142.489746,710.262207 L124.779785,744 L118.400391,744 L112.211426,709.087891 L109.228027,731.844238 L107.101562,744 L97.8022461,744 L105.832031,697.789062 L117.765625,697.789062 Z M182.083496,734.478516 L165.960449,734.478516 L161.199707,744 L150.948242,744 L175.640625,697.789062 L184.241699,697.789062 L193.033203,744 L183.543457,744 L182.083496,734.478516 Z M169.769043,726.766113 L180.90918,726.766113 L178.306641,709.563965 L169.769043,726.766113 Z M235.324707,705.501465 L221.61377,705.501465 L214.94873,744 L205.649414,744 L212.314453,705.501465 L198.762207,705.501465 L200.126953,697.789062 L236.689453,697.789062 L235.324707,705.501465 Z M265.682617,723.973145 L247.972656,723.973145 L245.814453,736.351074 L266.634766,736.351074 L265.301758,744 L235.182129,744 L243.211914,697.789062 L273.268066,697.789062 L271.90332,705.501465 L251.178223,705.501465 L249.242188,716.514648 L267.015625,716.514648 L265.682617,723.973145 Z M290.518066,744.634766 C287.450017,744.571289 284.747001,743.846605 282.408936,742.460693 C280.07087,741.074781 278.219489,739.07529 276.854736,736.462158 C275.489983,733.849027 274.701824,730.849789 274.490234,727.464355 C274.257486,723.994286 274.627762,720.291524 275.601074,716.355957 C276.574386,712.42039 278.140126,708.960952 280.29834,705.977539 C282.456554,702.994126 284.990301,700.761889 287.899658,699.280762 C290.809015,697.799635 293.956363,697.09082 297.341797,697.154297 C300.452164,697.217774 303.17105,697.953037 305.498535,699.360107 C307.826021,700.767178 309.656243,702.787829 310.989258,705.422119 C312.322272,708.05641 313.083983,711.045068 313.274414,714.388184 C313.486004,718.112161 313.083989,721.941875 312.068359,725.877441 C311.052729,729.813008 309.47641,733.219549 307.339355,736.097168 C305.202301,738.974787 302.700291,741.132968 299.833252,742.571777 C296.966213,744.010587 293.861182,744.698243 290.518066,744.634766 Z M303.689453,719.625 L303.943359,716.609863 C304.154949,712.843568 303.652431,709.987152 302.435791,708.040527 C301.219151,706.093903 299.373059,705.078288 296.897461,704.993652 C293.025371,704.866699 289.952078,706.580549 287.67749,710.135254 C285.402902,713.689959 284.117515,718.66224 283.821289,725.052246 C283.609699,728.797382 284.106928,731.680247 285.312988,733.700928 C286.519049,735.721608 288.391589,736.774251 290.930664,736.858887 C294.252621,737.006999 297.003244,735.711033 299.182617,732.970947 C301.36199,730.230862 302.790198,726.353541 303.467285,721.338867 L303.689453,719.625 Z M0.666503906,820 L8.69628906,773.789063 L23.1054688,773.820801 C28.4586856,773.84196 32.4788277,774.93163 35.1660156,777.089844 C37.8532035,779.248058 39.0698255,782.284323 38.815918,786.19873 C38.5196925,790.874861 35.8219656,794.291981 30.7226562,796.450195 C32.5634858,797.084964 33.9916941,798.275138 35.0073242,800.020752 C36.0229543,801.766366 36.4567065,803.824044 36.3085938,806.193848 C36.0123683,810.552593 34.3038079,813.943266 31.1828613,816.365967 C28.0619147,818.788668 23.8037379,820 18.4082031,820 L0.666503906,820 Z M13.4887695,799.87793 L11.2988281,812.351074 L18.6303711,812.382812 C20.9155388,812.382812 22.8303959,811.816819 24.375,810.684814 C25.9196041,809.55281 26.840005,808.024098 27.1362305,806.098633 C27.4324559,804.194326 27.1732625,802.707932 26.3586426,801.639404 C25.5440226,800.570877 24.1740005,799.994304 22.2485352,799.909668 L13.4887695,799.87793 Z M14.6313477,793.149414 L20.9472656,793.212891 C23.2959102,793.170573 25.216057,792.620448 26.7077637,791.5625 C28.1994703,790.504552 29.093423,789.034026 29.3896484,787.150879 C29.9186224,783.426902 27.961448,781.554362 23.5180664,781.533203 L16.6625977,781.501465 L14.6313477,793.149414 Z M60.128418,794.545898 L73.0458984,773.789063 L83.7099609,773.789063 L63.5244141,803.75 L60.7314453,820 L51.2734375,820 L54.2885742,802.702637 L44.7036133,773.820801 L54.5107422,773.789063 L60.128418,794.545898 Z M117.765625,773.789063 L123.446777,807.209473 L140.680664,773.789063 L153.058594,773.789063 L145.028809,820 L135.697754,820 L137.98291,806.828613 L142.489746,786.262207 L124.779785,820 L118.400391,820 L112.211426,785.087891 L109.228027,807.844238 L107.101562,820 L97.8022461,820 L105.832031,773.789063 L117.765625,773.789063 Z M182.083496,810.478516 L165.960449,810.478516 L161.199707,820 L150.948242,820 L175.640625,773.789063 L184.241699,773.789063 L193.033203,820 L183.543457,820 L182.083496,810.478516 Z M169.769043,802.766113 L180.90918,802.766113 L178.306641,785.563965 L169.769043,802.766113 Z M235.324707,781.501465 L221.61377,781.501465 L214.94873,820 L205.649414,820 L212.314453,781.501465 L198.762207,781.501465 L200.126953,773.789063 L236.689453,773.789063 L235.324707,781.501465 Z M265.682617,799.973145 L247.972656,799.973145 L245.814453,812.351074 L266.634766,812.351074 L265.301758,820 L235.182129,820 L243.211914,773.789063 L273.268066,773.789063 L271.90332,781.501465 L251.178223,781.501465 L249.242188,792.514648 L267.015625,792.514648 L265.682617,799.973145 Z M290.518066,820.634766 C287.450017,820.571289 284.747001,819.846605 282.408936,818.460693 C280.07087,817.074781 278.219489,815.07529 276.854736,812.462158 C275.489983,809.849027 274.701824,806.849789 274.490234,803.464355 C274.257486,799.994286 274.627762,796.291524 275.601074,792.355957 C276.574386,788.42039 278.140126,784.960952 280.29834,781.977539 C282.456554,778.994126 284.990301,776.761889 287.899658,775.280762 C290.809015,773.799635 293.956363,773.09082 297.341797,773.154297 C300.452164,773.217774 303.17105,773.953037 305.498535,775.360107 C307.826021,776.767178 309.656243,778.787829 310.989258,781.422119 C312.322272,784.05641 313.083983,787.045068 313.274414,790.388184 C313.486004,794.112161 313.083989,797.941875 312.068359,801.877441 C311.052729,805.813008 309.47641,809.219549 307.339355,812.097168 C305.202301,814.974787 302.700291,817.132968 299.833252,818.571777 C296.966213,820.010587 293.861182,820.698243 290.518066,820.634766 Z M303.689453,795.625 L303.943359,792.609863 C304.154949,788.843568 303.652431,785.987152 302.435791,784.040527 C301.219151,782.093903 299.373059,781.078288 296.897461,780.993652 C293.025371,780.866699 289.952078,782.580549 287.67749,786.135254 C285.402902,789.689959 284.117515,794.66224 283.821289,801.052246 C283.609699,804.797382 284.106928,807.680247 285.312988,809.700928 C286.519049,811.721608 288.391589,812.774251 290.930664,812.858887 C294.252621,813.006999 297.003244,811.711033 299.182617,808.970947 C301.36199,806.230862 302.790198,802.353541 303.467285,797.338867 L303.689453,795.625 Z M0.666503906,896 L8.69628906,849.789062 L23.1054688,849.820801 C28.4586856,849.84196 32.4788277,850.93163 35.1660156,853.089844 C37.8532035,855.248058 39.0698255,858.284323 38.815918,862.19873 C38.5196925,866.874861 35.8219656,870.291981 30.7226562,872.450195 C32.5634858,873.084964 33.9916941,874.275138 35.0073242,876.020752 C36.0229543,877.766366 36.4567065,879.824044 36.3085938,882.193848 C36.0123683,886.552593 34.3038079,889.943266 31.1828613,892.365967 C28.0619147,894.788668 23.8037379,896 18.4082031,896 L0.666503906,896 Z M13.4887695,875.87793 L11.2988281,888.351074 L18.6303711,888.382812 C20.9155388,888.382812 22.8303959,887.816819 24.375,886.684814 C25.9196041,885.55281 26.840005,884.024098 27.1362305,882.098633 C27.4324559,880.194326 27.1732625,878.707932 26.3586426,877.639404 C25.5440226,876.570877 24.1740005,875.994304 22.2485352,875.909668 L13.4887695,875.87793 Z M14.6313477,869.149414 L20.9472656,869.212891 C23.2959102,869.170573 25.216057,868.620448 26.7077637,867.5625 C28.1994703,866.504552 29.093423,865.034026 29.3896484,863.150879 C29.9186224,859.426902 27.961448,857.554362 23.5180664,857.533203 L16.6625977,857.501465 L14.6313477,869.149414 Z M60.128418,870.545898 L73.0458984,849.789062 L83.7099609,849.789062 L63.5244141,879.75 L60.7314453,896 L51.2734375,896 L54.2885742,878.702637 L44.7036133,849.820801 L54.5107422,849.789062 L60.128418,870.545898 Z M117.765625,849.789062 L123.446777,883.209473 L140.680664,849.789062 L153.058594,849.789062 L145.028809,896 L135.697754,896 L137.98291,882.828613 L142.489746,862.262207 L124.779785,896 L118.400391,896 L112.211426,861.087891 L109.228027,883.844238 L107.101562,896 L97.8022461,896 L105.832031,849.789062 L117.765625,849.789062 Z M182.083496,886.478516 L165.960449,886.478516 L161.199707,896 L150.948242,896 L175.640625,849.789062 L184.241699,849.789062 L193.033203,896 L183.543457,896 L182.083496,886.478516 Z M169.769043,878.766113 L180.90918,878.766113 L178.306641,861.563965 L169.769043,878.766113 Z M235.324707,857.501465 L221.61377,857.501465 L214.94873,896 L205.649414,896 L212.314453,857.501465 L198.762207,857.501465 L200.126953,849.789062 L236.689453,849.789062 L235.324707,857.501465 Z M265.682617,875.973145 L247.972656,875.973145 L245.814453,888.351074 L266.634766,888.351074 L265.301758,896 L235.182129,896 L243.211914,849.789062 L273.268066,849.789062 L271.90332,857.501465 L251.178223,857.501465 L249.242188,868.514648 L267.015625,868.514648 L265.682617,875.973145 Z M290.518066,896.634766 C287.450017,896.571289 284.747001,895.846605 282.408936,894.460693 C280.07087,893.074781 278.219489,891.07529 276.854736,888.462158 C275.489983,885.849027 274.701824,882.849789 274.490234,879.464355 C274.257486,875.994286 274.627762,872.291524 275.601074,868.355957 C276.574386,864.42039 278.140126,860.960952 280.29834,857.977539 C282.456554,854.994126 284.990301,852.761889 287.899658,851.280762 C290.809015,849.799635 293.956363,849.09082 297.341797,849.154297 C300.452164,849.217774 303.17105,849.953037 305.498535,851.360107 C307.826021,852.767178 309.656243,854.787829 310.989258,857.422119 C312.322272,860.05641 313.083983,863.045068 313.274414,866.388184 C313.486004,870.112161 313.083989,873.941875 312.068359,877.877441 C311.052729,881.813008 309.47641,885.219549 307.339355,888.097168 C305.202301,890.974787 302.700291,893.132968 299.833252,894.571777 C296.966213,896.010587 293.861182,896.698243 290.518066,896.634766 Z M303.689453,871.625 L303.943359,868.609863 C304.154949,864.843568 303.652431,861.987152 302.435791,860.040527 C301.219151,858.093903 299.373059,857.078288 296.897461,856.993652 C293.025371,856.866699 289.952078,858.580549 287.67749,862.135254 C285.402902,865.689959 284.117515,870.66224 283.821289,877.052246 C283.609699,880.797382 284.106928,883.680247 285.312988,885.700928 C286.519049,887.721608 288.391589,888.774251 290.930664,888.858887 C294.252621,889.006999 297.003244,887.711033 299.182617,884.970947 C301.36199,882.230862 302.790198,878.353541 303.467285,873.338867 L303.689453,871.625 Z M0.666503906,972 L8.69628906,925.789063 L23.1054688,925.820801 C28.4586856,925.84196 32.4788277,926.93163 35.1660156,929.089844 C37.8532035,931.248058 39.0698255,934.284323 38.815918,938.19873 C38.5196925,942.874861 35.8219656,946.291981 30.7226562,948.450195 C32.5634858,949.084964 33.9916941,950.275138 35.0073242,952.020752 C36.0229543,953.766366 36.4567065,955.824044 36.3085938,958.193848 C36.0123683,962.552593 34.3038079,965.943266 31.1828613,968.365967 C28.0619147,970.788668 23.8037379,972 18.4082031,972 L0.666503906,972 Z M13.4887695,951.87793 L11.2988281,964.351074 L18.6303711,964.382812 C20.9155388,964.382812 22.8303959,963.816819 24.375,962.684814 C25.9196041,961.55281 26.840005,960.024098 27.1362305,958.098633 C27.4324559,956.194326 27.1732625,954.707932 26.3586426,953.639404 C25.5440226,952.570877 24.1740005,951.994304 22.2485352,951.909668 L13.4887695,951.87793 Z M14.6313477,945.149414 L20.9472656,945.212891 C23.2959102,945.170573 25.216057,944.620448 26.7077637,943.5625 C28.1994703,942.504552 29.093423,941.034026 29.3896484,939.150879 C29.9186224,935.426902 27.961448,933.554362 23.5180664,933.533203 L16.6625977,933.501465 L14.6313477,945.149414 Z M60.128418,946.545898 L73.0458984,925.789063 L83.7099609,925.789063 L63.5244141,955.75 L60.7314453,972 L51.2734375,972 L54.2885742,954.702637 L44.7036133,925.820801 L54.5107422,925.789063 L60.128418,946.545898 Z M117.765625,925.789063 L123.446777,959.209473 L140.680664,925.789063 L153.058594,925.789063 L145.028809,972 L135.697754,972 L137.98291,958.828613 L142.489746,938.262207 L124.779785,972 L118.400391,972 L112.211426,937.087891 L109.228027,959.844238 L107.101562,972 L97.8022461,972 L105.832031,925.789063 L117.765625,925.789063 Z M182.083496,962.478516 L165.960449,962.478516 L161.199707,972 L150.948242,972 L175.640625,925.789063 L184.241699,925.789063 L193.033203,972 L183.543457,972 L182.083496,962.478516 Z M169.769043,954.766113 L180.90918,954.766113 L178.306641,937.563965 L169.769043,954.766113 Z M235.324707,933.501465 L221.61377,933.501465 L214.94873,972 L205.649414,972 L212.314453,933.501465 L198.762207,933.501465 L200.126953,925.789063 L236.689453,925.789063 L235.324707,933.501465 Z M265.682617,951.973145 L247.972656,951.973145 L245.814453,964.351074 L266.634766,964.351074 L265.301758,972 L235.182129,972 L243.211914,925.789063 L273.268066,925.789063 L271.90332,933.501465 L251.178223,933.501465 L249.242188,944.514648 L267.015625,944.514648 L265.682617,951.973145 Z M290.518066,972.634766 C287.450017,972.571289 284.747001,971.846605 282.408936,970.460693 C280.07087,969.074781 278.219489,967.07529 276.854736,964.462158 C275.489983,961.849027 274.701824,958.849789 274.490234,955.464355 C274.257486,951.994286 274.627762,948.291524 275.601074,944.355957 C276.574386,940.42039 278.140126,936.960952 280.29834,933.977539 C282.456554,930.994126 284.990301,928.761889 287.899658,927.280762 C290.809015,925.799635 293.956363,925.09082 297.341797,925.154297 C300.452164,925.217774 303.17105,925.953037 305.498535,927.360107 C307.826021,928.767178 309.656243,930.787829 310.989258,933.422119 C312.322272,936.05641 313.083983,939.045068 313.274414,942.388184 C313.486004,946.112161 313.083989,949.941875 312.068359,953.877441 C311.052729,957.813008 309.47641,961.219549 307.339355,964.097168 C305.202301,966.974787 302.700291,969.132968 299.833252,970.571777 C296.966213,972.010587 293.861182,972.698243 290.518066,972.634766 Z M303.689453,947.625 L303.943359,944.609863 C304.154949,940.843568 303.652431,937.987152 302.435791,936.040527 C301.219151,934.093903 299.373059,933.078288 296.897461,932.993652 C293.025371,932.866699 289.952078,934.580549 287.67749,938.135254 C285.402902,941.689959 284.117515,946.66224 283.821289,953.052246 C283.609699,956.797382 284.106928,959.680247 285.312988,961.700928 C286.519049,963.721608 288.391589,964.774251 290.930664,964.858887 C294.252621,965.006999 297.003244,963.711033 299.182617,960.970947 C301.36199,958.230862 302.790198,954.353541 303.467285,949.338867 L303.689453,947.625 Z" id="BY-MATEO-BY-MATEO-BY"></path>
        </g>
    </g>
</svg>